<svg width="16" height="16" viewBox="0 0 16 16" fill="none" xmlns="http://www.w3.org/2000/svg">
<g clip-path="url(#clip0_4_22)">
<path d="M15.5679 0.174997C15.8835 0.393747 16.0492 0.771872 15.9898 1.15L13.9898 14.15C13.9429 14.4531 13.7585 14.7187 13.4898 14.8687C13.221 15.0187 12.8992 15.0375 12.6148 14.9187L8.87728 13.3656L6.73665 15.6812C6.45853 15.9844 6.02103 16.0844 5.63665 15.9344C5.25228 15.7844 5.00228 15.4125 5.00228 15V12.3875C5.00228 12.2625 5.04915 12.1437 5.13353 12.0531L10.371 6.3375C10.5523 6.14062 10.546 5.8375 10.3585 5.65C10.171 5.4625 9.8679 5.45 9.67103 5.62812L3.31478 11.275L0.555404 9.89375C0.224154 9.72812 0.0116536 9.39687 0.00227861 9.02812C-0.00709639 8.65937 0.186654 8.31562 0.505404 8.13125L14.5054 0.131247C14.8398 -0.0593776 15.2523 -0.0406276 15.5679 0.174997Z" fill="white"/>
</g>
<defs>
<clipPath id="clip0_4_22">
<rect width="16" height="16" fill="white" transform="translate(0.00219727)"/>
</clipPath>
</defs>
</svg>
